<svg width="19" height="16" viewBox="0 0 19 16" fill="none" xmlns="http://www.w3.org/2000/svg">
<path d="M16.564 2.80769H13.7618L13.0942 0.936813C13.0481 0.808794 12.9636 0.698136 12.8522 0.619954C12.7408 0.541772 12.608 0.49988 12.472 0.5H6.15054C5.87238 0.5 5.62307 0.675138 5.53035 0.936813L4.86071 2.80769H2.05851C1.14779 2.80769 0.410156 3.54533 0.410156 4.45604V13.8516C0.410156 14.7624 1.14779 15.5 2.05851 15.5H16.564C17.4747 15.5 18.2124 14.7624 18.2124 13.8516V4.45604C18.2124 3.54533 17.4747 2.80769 16.564 2.80769ZM16.7288 13.8516C16.7288 13.9423 16.6547 14.0165 16.564 14.0165H2.05851C1.96785 14.0165 1.89367 13.9423 1.89367 13.8516V4.45604C1.89367 4.36539 1.96785 4.29121 2.05851 4.29121H5.90535L6.25768 3.30632L6.72952 1.98352H11.8909L12.3628 3.30632L12.7151 4.29121H16.564C16.6547 4.29121 16.7288 4.36539 16.7288 4.45604V13.8516ZM9.31125 5.60989C7.48983 5.60989 6.01455 7.08517 6.01455 8.90659C6.01455 10.728 7.48983 12.2033 9.31125 12.2033C11.1327 12.2033 12.608 10.728 12.608 8.90659C12.608 7.08517 11.1327 5.60989 9.31125 5.60989ZM9.31125 10.8846C8.21922 10.8846 7.33323 9.99863 7.33323 8.90659C7.33323 7.81456 8.21922 6.92857 9.31125 6.92857C10.4033 6.92857 11.2893 7.81456 11.2893 8.90659C11.2893 9.99863 10.4033 10.8846 9.31125 10.8846Z" fill="white"/>
</svg>
